<?xml version="1.0" standalone="no"?>
<!DOCTYPE svg PUBLIC "-//W3C//DTD SVG 20010904//EN"
 "http://www.w3.org/TR/2001/REC-SVG-20010904/DTD/svg10.dtd">
<svg version="1.0" xmlns="http://www.w3.org/2000/svg"
 width="260.000000pt" height="260.000000pt" viewBox="0 0 260.000000 260.000000"
 preserveAspectRatio="xMidYMid meet">
<metadata>
Created by potrace 1.11, written by Peter Selinger 2001-2013
</metadata>
<g transform="translate(0.000000,260.000000) scale(0.100000,-0.100000)"
fill="#000000" stroke="none">
<path d="M981 2264 c-80 -17 -159 -43 -188 -61 -39 -26 -47 -82 -22 -146 16
-39 49 -43 122 -17 128 47 252 63 311 40 22 -8 26 -16 26 -52 0 -100 -119
-271 -368 -531 -69 -71 -74 -80 -68 -109 13 -66 84 -104 146 -78 31 13 143
125 249 250 35 41 67 79 71 83 3 4 60 -13 126 -39 159 -61 372 -134 394 -134
9 0 25 9 35 20 23 25 15 93 -15 125 -12 13 -105 55 -218 100 -108 43 -203 84
-211 91 -12 11 -10 22 12 74 57 130 44 223 -39 300 -92 85 -220 114 -363 84z"/>
<path d="M1215 1210 c-110 -4 -258 -12 -330 -19 -71 -6 -157 -14 -190 -17 -33
-3 -67 -9 -74 -14 -21 -12 -15 -75 10 -120 37 -66 46 -67 294 -39 50 5 99 11
109 12 18 2 20 -4 17 -53 -1 -30 -4 -73 -6 -95 -3 -22 -9 -85 -15 -140 -6 -55
-15 -131 -21 -168 -8 -52 -8 -75 1 -98 22 -51 90 -85 126 -61 41 27 73 206 92
517 l7 110 106 3 107 3 6 -33 c12 -57 15 -499 5 -593 -6 -49 -7 -104 -4 -122
10 -57 103 -94 150 -59 14 10 21 32 26 87 10 93 4 666 -6 698 l-8 24 181 -5
c189 -6 198 -5 202 37 5 45 -1 66 -30 98 -26 30 -38 35 -92 42 -88 10 -424 12
-663 5z"/>
</g>
</svg>
